<?xml version="1.0" encoding="UTF-8"?>
<!DOCTYPE svg PUBLIC "-//W3C//DTD SVG 1.1//EN" "http://www.w3.org/Graphics/SVG/1.1/DTD/svg11.dtd">
<svg xmlns="http://www.w3.org/2000/svg" version="1.1" width="800px" height="800px" style="shape-rendering:geometricPrecision; text-rendering:geometricPrecision; image-rendering:optimizeQuality; fill-rule:evenodd; clip-rule:evenodd" xmlns:xlink="http://www.w3.org/1999/xlink">
<g><path style="opacity:1" fill="#000612" d="M -0.5,-0.5 C 266.167,-0.5 532.833,-0.5 799.5,-0.5C 799.5,266.167 799.5,532.833 799.5,799.5C 532.833,799.5 266.167,799.5 -0.5,799.5C -0.5,532.833 -0.5,266.167 -0.5,-0.5 Z"/></g>
<g><path style="opacity:1" fill="#481f04" d="M 439.5,417.5 C 439.675,419.621 439.341,421.621 438.5,423.5C 436.904,417.653 435.404,411.653 434,405.5C 433.338,406.984 432.504,408.317 431.5,409.5C 431.167,410.167 430.833,410.833 430.5,411.5C 426.167,416.5 421.5,421.167 416.5,425.5C 404.349,435.081 391.349,443.414 377.5,450.5C 373.715,452.428 369.715,453.762 365.5,454.5C 379.959,445.427 393.959,435.594 407.5,425C 417.703,416.464 426.87,406.964 435,396.5C 439.179,389.296 442.179,381.629 444,373.5C 446.868,352.421 450.202,331.421 454,310.5C 456.78,302.939 460.113,295.606 464,288.5C 464.167,289 464.333,289.5 464.5,290C 458.734,302.286 455.234,315.12 454,328.5C 461.524,311.428 467.357,293.761 471.5,275.5C 472.234,274.122 472.901,272.622 473.5,271C 472.446,269.612 472.28,268.112 473,266.5C 478.861,253.389 482.694,239.722 484.5,225.5C 487.359,222.08 488.526,218.08 488,213.5C 485.733,212.065 483.733,212.398 482,214.5C 481.938,218.148 482.105,221.815 482.5,225.5C 480.523,230.413 478.523,235.413 476.5,240.5C 472.345,247.8 467.012,254.133 460.5,259.5C 458.482,260.175 456.816,261.341 455.5,263C 457.17,270.135 456.504,276.968 453.5,283.5C 452.224,284.386 452.224,285.386 453.5,286.5C 456.433,285.07 458.933,283.07 461,280.5C 459.501,285.65 456.001,288.15 450.5,288C 449.398,285.599 449.231,283.099 450,280.5C 451.372,279.09 452.205,277.423 452.5,275.5C 454.753,269.185 453.42,263.685 448.5,259C 447.552,258.517 446.552,258.351 445.5,258.5C 443.379,258.325 441.379,258.659 439.5,259.5C 433.765,263.219 432.098,268.219 434.5,274.5C 436.208,278.383 438.542,281.883 441.5,285C 441.333,285.5 441.167,286 441,286.5C 438.313,285.418 436.146,283.751 434.5,281.5C 431.235,277.306 428.735,272.639 427,267.5C 423.716,254.245 420.882,240.911 418.5,227.5C 418.5,226.833 418.5,226.167 418.5,225.5C 420,219.794 418.666,214.628 414.5,210C 413.563,209.308 412.897,209.475 412.5,210.5C 406.045,216.569 405.879,222.903 412,229.5C 413.086,238.13 413.753,246.797 414,255.5C 417.369,269.073 420.369,282.74 423,296.5C 425.785,315.416 424.785,334.083 420,352.5C 416.019,362.46 411.519,372.126 406.5,381.5C 401.753,387.319 397.753,393.652 394.5,400.5C 389.198,407.476 383.864,414.476 378.5,421.5C 377.957,421.44 377.624,421.107 377.5,420.5C 385.286,405.228 394.452,390.895 405,377.5C 417.754,357.323 422.921,335.323 420.5,311.5C 419.134,320.335 417.134,329.001 414.5,337.5C 411.503,346.498 407.67,355.165 403,363.5C 393.884,376.112 385.384,389.112 377.5,402.5C 376.833,402.5 376.5,402.167 376.5,401.5C 376.5,401.167 376.5,400.833 376.5,400.5C 382.019,393.801 383.186,386.468 380,378.5C 378.974,375.761 377.474,373.428 375.5,371.5C 370.677,362.522 365.844,353.522 361,344.5C 360.536,345.094 360.369,345.761 360.5,346.5C 359.71,345.391 359.21,344.058 359,342.5C 358.658,344.619 357.825,344.953 356.5,343.5C 347.37,317.94 339.537,291.94 333,265.5C 330.235,258.974 327.235,252.64 324,246.5C 320.975,236.535 318.142,226.535 315.5,216.5C 315.258,211.676 317.425,208.676 322,207.5C 326.347,169.151 347.18,144.984 384.5,135C 418.489,128.943 446.656,138.776 469,164.5C 478.828,177.482 483.995,192.149 484.5,208.5C 486.722,208.178 488.556,208.845 490,210.5C 491.457,213.366 491.79,216.366 491,219.5C 488.034,228.658 485.701,237.992 484,247.5C 478.4,260.975 474.4,274.975 472,289.5C 465.735,308.961 459.068,328.294 452,347.5C 450.278,359.223 448.278,370.89 446,382.5C 444.199,388.098 441.866,393.431 439,398.5C 438.406,404.856 438.573,411.189 439.5,417.5 Z"/></g>
<g><path style="opacity:1" fill="#ce8e0a" d="M 423.5,237.5 C 429.183,238.47 434.85,239.637 440.5,241C 441.571,241.852 442.571,242.685 443.5,243.5C 443.369,244.376 443.702,245.043 444.5,245.5C 445.182,244.757 445.849,244.091 446.5,243.5C 453.453,242.026 460.453,240.359 467.5,238.5C 465.828,245.187 461.828,249.854 455.5,252.5C 455.582,249.415 454.082,247.748 451,247.5C 448.1,247.9 445.267,248.566 442.5,249.5C 445.137,250.621 447.804,250.621 450.5,249.5C 452.175,249.868 453.175,250.868 453.5,252.5C 451.712,252.215 450.045,252.548 448.5,253.5C 448.863,254.183 449.196,254.85 449.5,255.5C 441.211,254.479 434.878,257.479 430.5,264.5C 429.042,261.628 427.875,258.628 427,255.5C 426.246,249.374 425.08,243.374 423.5,237.5 Z"/></g>
<g><path style="opacity:1" fill="#764202" d="M 455.5,252.5 C 455.062,253.506 454.396,253.506 453.5,252.5C 453.175,250.868 452.175,249.868 450.5,249.5C 447.804,250.621 445.137,250.621 442.5,249.5C 445.267,248.566 448.1,247.9 451,247.5C 454.082,247.748 455.582,249.415 455.5,252.5 Z"/></g>
<g><path style="opacity:1" fill="#edd437" d="M 329.5,241.5 C 331.847,248.528 335.014,255.195 339,261.5C 347.333,271.833 355.667,282.167 364,292.5C 364.528,293.816 364.028,294.483 362.5,294.5C 348.131,280.961 336.631,265.294 328,247.5C 326.855,244.568 326.022,241.568 325.5,238.5C 325.373,236.085 325.207,233.751 325,231.5C 326.769,234.706 328.269,238.039 329.5,241.5 Z"/></g>
<g><path style="opacity:1" fill="#5a2c05" d="M 350.5,206.5 C 351.117,206.611 351.617,206.944 352,207.5C 352.179,210.553 352.679,213.553 353.5,216.5C 356.89,219.32 358.557,222.986 358.5,227.5C 358.338,229.527 358.505,231.527 359,233.5C 362.54,238.077 365.706,242.91 368.5,248C 373.086,248.521 376.42,246.688 378.5,242.5C 378.487,237.908 380.32,234.242 384,231.5C 384.334,229.153 384.167,226.819 383.5,224.5C 383.833,224.5 384.167,224.5 384.5,224.5C 385.156,226.484 385.822,228.484 386.5,230.5C 384.798,233.199 382.798,235.699 380.5,238C 381.536,239.776 381.536,241.609 380.5,243.5C 377.78,248.027 373.78,250.193 368.5,250C 362.209,243.249 358.209,235.416 356.5,226.5C 356.66,224.801 356.494,223.134 356,221.5C 354.333,219.5 352.667,217.5 351,215.5C 350.503,212.854 350.336,210.187 350.5,207.5C 350.5,207.167 350.5,206.833 350.5,206.5 Z"/></g>
<g><path style="opacity:1" fill="#ecd843" d="M 476.5,245.5 C 472.549,251.452 467.549,256.452 461.5,260.5C 460.893,260.376 460.56,260.043 460.5,259.5C 467.012,254.133 472.345,247.8 476.5,240.5C 477.895,238.946 478.561,239.279 478.5,241.5C 478.332,243.171 477.665,244.504 476.5,245.5 Z"/></g>
<g><path style="opacity:1" fill="#6d3c09" d="M 468.5,225.5 C 468.299,229.35 466.466,230.35 463,228.5C 458.763,232.036 454.263,235.202 449.5,238C 448.242,239.741 447.242,241.574 446.5,243.5C 445.849,244.091 445.182,244.757 444.5,245.5C 443.702,245.043 443.369,244.376 443.5,243.5C 445.186,240.297 447.519,237.464 450.5,235C 454.377,233.568 457.711,231.402 460.5,228.5C 460.987,227.527 461.487,226.527 462,225.5C 462.7,227.032 463.866,228.032 465.5,228.5C 466.141,227.007 467.141,226.007 468.5,225.5 Z"/></g>
<g><path style="opacity:1" fill="#f4d437" d="M 468.5,225.5 C 469.708,226.234 471.041,226.567 472.5,226.5C 471.434,230.782 469.767,234.782 467.5,238.5C 460.453,240.359 453.453,242.026 446.5,243.5C 447.242,241.574 448.242,239.741 449.5,238C 454.263,235.202 458.763,232.036 463,228.5C 466.466,230.35 468.299,229.35 468.5,225.5 Z"/></g>
<g><path style="opacity:1" fill="#bc7706" d="M 476.5,216.5 C 476.833,216.5 477.167,216.5 477.5,216.5C 478.639,219.425 479.139,222.425 479,225.5C 475.678,232.827 471.678,240.493 467,248.5C 462.722,253.509 457.555,256.676 451.5,258C 450.619,257.292 449.953,256.458 449.5,255.5C 449.196,254.85 448.863,254.183 448.5,253.5C 450.045,252.548 451.712,252.215 453.5,252.5C 454.396,253.506 455.062,253.506 455.5,252.5C 461.828,249.854 465.828,245.187 467.5,238.5C 469.767,234.782 471.434,230.782 472.5,226.5C 471.041,226.567 469.708,226.234 468.5,225.5C 467.962,222.811 467.295,220.144 466.5,217.5C 468.187,216.432 469.854,216.599 471.5,218C 469.582,219.77 469.082,221.937 470,224.5C 470.317,222.699 470.984,222.366 472,223.5C 473.154,222.257 474.488,221.257 476,220.5C 476.49,219.207 476.657,217.873 476.5,216.5 Z"/></g>
<g><path style="opacity:1" fill="#c88408" d="M 333.5,194.5 C 333.336,197.187 333.503,199.854 334,202.5C 334.278,203.416 334.778,204.082 335.5,204.5C 337.545,206.984 340.212,207.984 343.5,207.5C 345.786,207.405 347.786,206.738 349.5,205.5C 350.167,205.5 350.5,205.833 350.5,206.5C 350.5,206.833 350.5,207.167 350.5,207.5C 349.223,208.694 348.556,210.36 348.5,212.5C 348.667,214.167 348.833,215.833 349,217.5C 351.364,220.69 353.864,223.69 356.5,226.5C 358.209,235.416 362.209,243.249 368.5,250C 373.78,250.193 377.78,248.027 380.5,243.5C 380.414,244.496 380.748,245.329 381.5,246C 386.906,249.21 392.572,251.544 398.5,253C 407.361,244.243 408.694,234.409 402.5,223.5C 403.05,221.343 403.717,219.343 404.5,217.5C 404.29,222.416 405.79,226.749 409,230.5C 414.649,247.571 409.149,258.738 392.5,264C 382.781,266.611 373.447,265.611 364.5,261C 356.479,256.649 349.312,251.149 343,244.5C 340.642,241.778 338.809,238.778 337.5,235.5C 331.928,223.066 330.095,210.066 332,196.5C 332.278,195.584 332.778,194.918 333.5,194.5 Z"/></g>
<g><path style="opacity:1" fill="#cf8f0b" d="M 358.5,227.5 C 366.249,231.043 372.915,236.043 378.5,242.5C 376.42,246.688 373.086,248.521 368.5,248C 365.706,242.91 362.54,238.077 359,233.5C 358.505,231.527 358.338,229.527 358.5,227.5 Z"/></g>
<g><path style="opacity:1" fill="#e7b919" d="M 350.5,207.5 C 350.336,210.187 350.503,212.854 351,215.5C 352.667,217.5 354.333,219.5 356,221.5C 356.494,223.134 356.66,224.801 356.5,226.5C 353.864,223.69 351.364,220.69 349,217.5C 348.833,215.833 348.667,214.167 348.5,212.5C 348.556,210.36 349.223,208.694 350.5,207.5 Z"/></g>
<g><path style="opacity:1" fill="#9b6e16" d="M 446.5,220.5 C 450.134,220.199 453.8,221.033 457.5,223C 458.451,223.718 458.617,224.551 458,225.5C 456.301,224.594 454.467,224.261 452.5,224.5C 450.742,223.001 448.909,222.668 447,223.5C 445.454,222.497 445.287,221.497 446.5,220.5 Z"/></g>
<g><path style="opacity:1" fill="#efdc46" d="M 484.5,225.5 C 483.604,226.506 482.938,226.506 482.5,225.5C 482.105,221.815 481.938,218.148 482,214.5C 483.733,212.398 485.733,212.065 488,213.5C 488.526,218.08 487.359,222.08 484.5,225.5 Z"/></g>
<g><path style="opacity:1" fill="#ece380" d="M 412.5,210.5 C 412.897,209.475 413.563,209.308 414.5,210C 418.666,214.628 420,219.794 418.5,225.5C 414.435,221.078 412.435,216.078 412.5,210.5 Z"/></g>
<g><path style="opacity:1" fill="#f3ca27" d="M 397.5,206.5 C 401.768,207.373 406.102,207.706 410.5,207.5C 408.102,210.571 406.102,213.905 404.5,217.5C 403.717,219.343 403.05,221.343 402.5,223.5C 408.694,234.409 407.361,244.243 398.5,253C 392.572,251.544 386.906,249.21 381.5,246C 380.748,245.329 380.414,244.496 380.5,243.5C 381.536,241.609 381.536,239.776 380.5,238C 382.798,235.699 384.798,233.199 386.5,230.5C 385.822,228.484 385.156,226.484 384.5,224.5C 384.886,217.931 388.219,213.431 394.5,211C 396.141,209.871 397.141,208.371 397.5,206.5 Z"/></g>
<g><path style="opacity:1" fill="#7f4d09" d="M 391.5,229.5 C 392.833,229.5 394.167,229.5 395.5,229.5C 396.55,235.223 394.883,239.89 390.5,243.5C 389.5,243.167 388.833,242.5 388.5,241.5C 388.449,238.937 388.783,236.271 389.5,233.5C 390.506,242.424 392.172,242.257 394.5,233C 394.167,232.5 393.833,232 393.5,231.5C 390.798,232.798 390.131,232.131 391.5,229.5 Z"/></g>
<g><path style="opacity:1" fill="#f4c924" d="M 355.5,175.5 C 356.167,175.5 356.833,175.5 357.5,175.5C 358.29,176.401 359.29,177.068 360.5,177.5C 361.768,179.387 363.601,180.387 366,180.5C 368.792,179.784 371.626,179.451 374.5,179.5C 372.94,181.129 373.273,182.296 375.5,183C 374.333,183.5 373.5,184.333 373,185.5C 370.603,197.388 373.437,207.721 381.5,216.5C 382.325,217.386 383.325,217.719 384.5,217.5C 382.455,219.696 382.122,222.03 383.5,224.5C 384.167,226.819 384.334,229.153 384,231.5C 380.32,234.242 378.487,237.908 378.5,242.5C 372.915,236.043 366.249,231.043 358.5,227.5C 358.557,222.986 356.89,219.32 353.5,216.5C 352.679,213.553 352.179,210.553 352,207.5C 351.617,206.944 351.117,206.611 350.5,206.5C 350.5,205.833 350.167,205.5 349.5,205.5C 349.167,205.5 348.833,205.5 348.5,205.5C 347.429,194.464 349.762,184.464 355.5,175.5 Z"/></g>
<g><path style="opacity:1" fill="#f5d236" d="M 438.5,209.5 C 438.62,210.586 439.287,211.253 440.5,211.5C 441.864,210.957 443.197,210.79 444.5,211C 445.926,213.045 446.926,215.212 447.5,217.5C 447.443,218.609 447.11,219.609 446.5,220.5C 445.287,221.497 445.454,222.497 447,223.5C 448.909,222.668 450.742,223.001 452.5,224.5C 455.428,225.257 458.094,226.59 460.5,228.5C 457.711,231.402 454.377,233.568 450.5,235C 447.519,237.464 445.186,240.297 443.5,243.5C 442.571,242.685 441.571,241.852 440.5,241C 434.85,239.637 429.183,238.47 423.5,237.5C 422.694,234.715 422.028,231.881 421.5,229C 422.374,225.185 422.54,221.351 422,217.5C 420.223,214.941 418.723,212.274 417.5,209.5C 418.823,208.947 420.156,209.447 421.5,211C 427.258,211.564 432.925,211.064 438.5,209.5 Z"/></g>
<g><path style="opacity:1" fill="#925b0b" d="M 439.5,208.5 C 445.723,208.388 448.39,211.388 447.5,217.5C 446.926,215.212 445.926,213.045 444.5,211C 443.197,210.79 441.864,210.957 440.5,211.5C 439.287,211.253 438.62,210.586 438.5,209.5C 438.5,208.833 438.833,208.5 439.5,208.5 Z"/></g>
<g><path style="opacity:1" fill="#824f15" d="M 380.5,191.5 C 381.222,191.918 381.722,192.584 382,193.5C 382.333,192.833 382.667,192.167 383,191.5C 384.686,194.883 386.853,197.883 389.5,200.5C 387.767,201.008 387.434,201.841 388.5,203C 391.167,203.333 393.833,203.667 396.5,204C 397.252,204.671 397.586,205.504 397.5,206.5C 397.141,208.371 396.141,209.871 394.5,211C 388.219,213.431 384.886,217.931 384.5,224.5C 384.167,224.5 383.833,224.5 383.5,224.5C 382.122,222.03 382.455,219.696 384.5,217.5C 387.06,214.542 390.06,212.042 393.5,210C 395.515,208.445 395.848,206.611 394.5,204.5C 392.147,205.565 389.814,205.398 387.5,204C 386.277,201.056 384.444,198.556 382,196.5C 380.991,194.975 380.491,193.308 380.5,191.5 Z"/></g>
<g><path style="opacity:1" fill="#663102" d="M 348.5,205.5 C 348.833,205.5 349.167,205.5 349.5,205.5C 347.786,206.738 345.786,207.405 343.5,207.5C 344.635,205.787 346.302,205.12 348.5,205.5 Z"/></g>
<g><path style="opacity:1" fill="#825421" d="M 456.5,179.5 C 457.721,183.43 458.221,187.43 458,191.5C 455.502,190.879 453.168,191.545 451,193.5C 451.619,196.708 452.119,200.042 452.5,203.5C 450.208,203.244 448.041,203.577 446,204.5C 444.871,202.859 443.371,201.859 441.5,201.5C 441.369,200.761 441.536,200.094 442,199.5C 444.709,202.368 447.876,203.035 451.5,201.5C 450.222,199.278 449.222,196.944 448.5,194.5C 450.05,192.378 452.05,190.711 454.5,189.5C 456.54,183.973 455.374,179.306 451,175.5C 450.517,174.552 450.351,173.552 450.5,172.5C 451.873,172.343 453.207,172.51 454.5,173C 452.469,175.549 453.136,177.715 456.5,179.5 Z"/></g>
<g><path style="opacity:1" fill="#f1d73a" d="M 349.5,157.5 C 349.5,158.833 349.5,160.167 349.5,161.5C 348.448,161.351 347.448,161.517 346.5,162C 347.252,162.671 347.586,163.504 347.5,164.5C 345.871,165.625 344.371,166.959 343,168.5C 340.924,173.651 338.59,178.651 336,183.5C 335.51,184.793 335.343,186.127 335.5,187.5C 334.326,188.514 333.66,189.847 333.5,191.5C 333.5,192.5 333.5,193.5 333.5,194.5C 332.778,194.918 332.278,195.584 332,196.5C 330.095,210.066 331.928,223.066 337.5,235.5C 323.721,215.913 322.887,195.58 335,174.5C 338.656,167.689 343.489,162.022 349.5,157.5 Z"/></g>
<g><path style="opacity:1" fill="#88581a" d="M 461.5,203.5 C 462.456,204.659 463.456,205.826 464.5,207C 464.333,207.5 464.167,208 464,208.5C 463.259,207.359 462.425,207.359 461.5,208.5C 461.295,206.145 460.295,203.811 458.5,201.5C 458.755,198.984 459.589,196.65 461,194.5C 460.633,197.665 460.799,200.665 461.5,203.5 Z"/></g>
<g><path style="opacity:1" fill="#f3d840" d="M 471.5,175.5 C 478.4,186.43 481.567,198.43 481,211.5C 479.811,213.233 478.644,214.9 477.5,216.5C 477.167,216.5 476.833,216.5 476.5,216.5C 476.657,217.873 476.49,219.207 476,220.5C 474.488,221.257 473.154,222.257 472,223.5C 470.984,222.366 470.317,222.699 470,224.5C 469.082,221.937 469.582,219.77 471.5,218C 469.854,216.599 468.187,216.432 466.5,217.5C 467.295,220.144 467.962,222.811 468.5,225.5C 467.141,226.007 466.141,227.007 465.5,228.5C 463.866,228.032 462.7,227.032 462,225.5C 461.487,226.527 460.987,227.527 460.5,228.5C 458.094,226.59 455.428,225.257 452.5,224.5C 454.467,224.261 456.301,224.594 458,225.5C 458.617,224.551 458.451,223.718 457.5,223C 453.8,221.033 450.134,220.199 446.5,220.5C 447.11,219.609 447.443,218.609 447.5,217.5C 448.39,211.388 445.723,208.388 439.5,208.5C 440.568,207.566 441.901,207.232 443.5,207.5C 445.838,209.011 446.504,208.677 445.5,206.5C 446.624,205.191 448.124,204.525 450,204.5C 451.894,204.539 452.894,205.206 453,206.5C 454.054,205.518 454.554,204.351 454.5,203C 455.745,202.209 457.078,201.709 458.5,201.5C 460.295,203.811 461.295,206.145 461.5,208.5C 462.425,207.359 463.259,207.359 464,208.5C 464.167,208 464.333,207.5 464.5,207C 463.456,205.826 462.456,204.659 461.5,203.5C 462.517,199.193 465.184,196.193 469.5,194.5C 470.651,189.833 470.651,185.166 469.5,180.5C 470.562,178.444 470.229,176.444 468.5,174.5C 468.667,174.167 468.833,173.833 469,173.5C 469.708,174.381 470.542,175.047 471.5,175.5 Z"/></g>
<g><path style="opacity:1" fill="#89550f" d="M 452.5,211.5 C 453.515,212.46 453.515,213.627 452.5,215C 457.502,219.691 459.669,218.524 459,211.5C 460.067,212.191 461.234,212.691 462.5,213C 461.196,213.804 460.529,214.971 460.5,216.5C 461.388,218.155 461.888,219.822 462,221.5C 458.258,219.981 454.424,218.648 450.5,217.5C 451.172,215.47 451.838,213.47 452.5,211.5 Z"/></g>
<g><path style="opacity:1" fill="#8f5f11" d="M 476.5,216.5 C 474.897,214.834 473.23,214.167 471.5,214.5C 474.17,212.91 475.837,213.577 476.5,216.5 Z"/></g>
<g><path style="opacity:1" fill="#774303" d="M 333.5,191.5 C 334.449,195.657 335.116,199.99 335.5,204.5C 334.778,204.082 334.278,203.416 334,202.5C 333.503,199.854 333.336,197.187 333.5,194.5C 333.5,193.5 333.5,192.5 333.5,191.5 Z"/></g>
<g><path style="opacity:1" fill="#925e1e" d="M 395.5,183.5 C 398.655,186.364 402.322,188.197 406.5,189C 404.167,195.027 399.833,199.027 393.5,201C 391.934,201.765 390.601,201.598 389.5,200.5C 393.898,199.467 397.898,197.633 401.5,195C 402.406,193.301 402.739,191.467 402.5,189.5C 400.473,189.662 398.473,189.495 396.5,189C 395.538,186.406 393.871,184.406 391.5,183C 392.928,182.421 394.262,182.588 395.5,183.5 Z"/></g>
<g><path style="opacity:1" fill="#7c4f27" d="M 441.5,201.5 C 442.864,203.191 444.197,204.858 445.5,206.5C 446.504,208.677 445.838,209.011 443.5,207.5C 440.852,204.219 438.686,200.552 437,196.5C 435.649,194.981 434.149,193.648 432.5,192.5C 429.443,194.556 427.109,197.222 425.5,200.5C 424.386,199.277 424.219,197.944 425,196.5C 427.415,195.589 428.915,193.922 429.5,191.5C 431.068,190.527 432.735,190.36 434.5,191C 437.229,194.308 439.562,197.808 441.5,201.5 Z"/></g>
<g><path style="opacity:1" fill="#f7ec7f" d="M 435.5,155.5 C 432.24,160.233 430.406,165.566 430,171.5C 428.948,178.198 428.782,184.865 429.5,191.5C 428.915,193.922 427.415,195.589 425,196.5C 424.219,197.944 424.386,199.277 425.5,200.5C 427.109,197.222 429.443,194.556 432.5,192.5C 434.149,193.648 435.649,194.981 437,196.5C 438.686,200.552 440.852,204.219 443.5,207.5C 441.901,207.232 440.568,207.566 439.5,208.5C 438.833,208.5 438.5,208.833 438.5,209.5C 432.925,211.064 427.258,211.564 421.5,211C 420.156,209.447 418.823,208.947 417.5,209.5C 416.143,208.315 414.643,207.315 413,206.5C 412.098,206.743 411.265,207.077 410.5,207.5C 406.102,207.706 401.768,207.373 397.5,206.5C 397.586,205.504 397.252,204.671 396.5,204C 393.833,203.667 391.167,203.333 388.5,203C 387.434,201.841 387.767,201.008 389.5,200.5C 390.601,201.598 391.934,201.765 393.5,201C 399.833,199.027 404.167,195.027 406.5,189C 402.322,188.197 398.655,186.364 395.5,183.5C 396.172,182.733 397.005,182.066 398,181.5C 400.269,181.726 402.769,182.059 405.5,182.5C 405.194,178.253 405.861,174.253 407.5,170.5C 412.367,160.964 420.034,157.297 430.5,159.5C 432.186,158.143 433.852,156.81 435.5,155.5 Z"/></g>
<g><path style="opacity:1" fill="#80501c" d="M 418.5,202.5 C 420.149,203.714 421.815,205.047 423.5,206.5C 425.673,201.589 426.673,202.255 426.5,208.5C 422.411,208.412 419.744,206.412 418.5,202.5 Z"/></g>
<g><path style="opacity:1" fill="#723f1b" d="M 418.5,202.5 C 416.611,197.41 413.611,192.91 409.5,189C 410.167,188.333 410.833,188.333 411.5,189C 412.333,191.167 413.833,192.667 416,193.5C 416.993,196.474 417.826,199.474 418.5,202.5 Z"/></g>
<g><path style="opacity:1" fill="#cd8a09" d="M 355.5,175.5 C 349.762,184.464 347.429,194.464 348.5,205.5C 346.302,205.12 344.635,205.787 343.5,207.5C 340.212,207.984 337.545,206.984 335.5,204.5C 335.116,199.99 334.449,195.657 333.5,191.5C 333.66,189.847 334.326,188.514 335.5,187.5C 337.306,184.252 339.806,181.586 343,179.5C 343.667,178.833 343.667,178.167 343,177.5C 340.849,180.112 340.015,180.112 340.5,177.5C 343.616,177.08 346.283,176.08 348.5,174.5C 351.049,173.35 353.383,173.684 355.5,175.5 Z"/></g>
<g><path style="opacity:1" fill="#f6eb7e" d="M 459.5,179.5 C 460.925,181.031 461.591,180.698 461.5,178.5C 462.167,178.833 462.833,179.167 463.5,179.5C 462.913,180.767 462.913,181.767 463.5,182.5C 465.522,181.811 466.856,180.478 467.5,178.5C 468.167,179.167 468.833,179.833 469.5,180.5C 470.651,185.166 470.651,189.833 469.5,194.5C 465.184,196.193 462.517,199.193 461.5,203.5C 460.799,200.665 460.633,197.665 461,194.5C 459.589,196.65 458.755,198.984 458.5,201.5C 457.078,201.709 455.745,202.209 454.5,203C 454.554,204.351 454.054,205.518 453,206.5C 452.894,205.206 451.894,204.539 450,204.5C 448.124,204.525 446.624,205.191 445.5,206.5C 444.197,204.858 442.864,203.191 441.5,201.5C 443.371,201.859 444.871,202.859 446,204.5C 448.041,203.577 450.208,203.244 452.5,203.5C 452.119,200.042 451.619,196.708 451,193.5C 453.168,191.545 455.502,190.879 458,191.5C 458.221,187.43 457.721,183.43 456.5,179.5C 457.348,178.375 458.348,178.375 459.5,179.5 Z"/></g>
<g><path style="opacity:1" fill="#955f16" d="M 467.5,178.5 C 466.856,180.478 465.522,181.811 463.5,182.5C 462.913,181.767 462.913,180.767 463.5,179.5C 464.048,174.722 465.381,174.388 467.5,178.5 Z"/></g>
<g><path style="opacity:1" fill="#8b5209" d="M 384.5,167.5 C 385.885,168.302 385.718,168.969 384,169.5C 382.51,166.919 380.343,166.085 377.5,167C 368.917,171.977 369.584,175.143 379.5,176.5C 378.579,178.756 376.912,179.756 374.5,179.5C 371.626,179.451 368.792,179.784 366,180.5C 363.601,180.387 361.768,179.387 360.5,177.5C 360.435,177.062 360.601,176.728 361,176.5C 362.085,177.293 363.252,177.96 364.5,178.5C 367.318,177.217 370.152,177.217 373,178.5C 378.58,177.075 378.08,176.241 371.5,176C 370.449,174.615 369.116,173.615 367.5,173C 370.256,170.383 373.256,168.05 376.5,166C 377.793,165.51 379.127,165.343 380.5,165.5C 381.117,165.389 381.617,165.056 382,164.5C 382.852,165.571 383.685,166.571 384.5,167.5 Z"/></g>
<g><path style="opacity:1" fill="#f7e66d" d="M 384.5,167.5 C 384.897,166.475 385.563,166.308 386.5,167C 387.923,170.762 389.923,171.262 392.5,168.5C 394.075,170.114 394.741,172.114 394.5,174.5C 395.833,174.5 397.167,174.5 398.5,174.5C 398.608,172.486 397.942,170.82 396.5,169.5C 400.099,170.344 403.766,170.677 407.5,170.5C 405.861,174.253 405.194,178.253 405.5,182.5C 402.769,182.059 400.269,181.726 398,181.5C 397.005,182.066 396.172,182.733 395.5,183.5C 394.262,182.588 392.928,182.421 391.5,183C 393.871,184.406 395.538,186.406 396.5,189C 398.473,189.495 400.473,189.662 402.5,189.5C 402.739,191.467 402.406,193.301 401.5,195C 397.898,197.633 393.898,199.467 389.5,200.5C 386.853,197.883 384.686,194.883 383,191.5C 382.667,192.167 382.333,192.833 382,193.5C 381.722,192.584 381.222,191.918 380.5,191.5C 380.491,193.308 380.991,194.975 382,196.5C 384.444,198.556 386.277,201.056 387.5,204C 389.814,205.398 392.147,205.565 394.5,204.5C 395.848,206.611 395.515,208.445 393.5,210C 390.06,212.042 387.06,214.542 384.5,217.5C 383.325,217.719 382.325,217.386 381.5,216.5C 373.437,207.721 370.603,197.388 373,185.5C 373.5,184.333 374.333,183.5 375.5,183C 373.273,182.296 372.94,181.129 374.5,179.5C 376.912,179.756 378.579,178.756 379.5,176.5C 369.584,175.143 368.917,171.977 377.5,167C 380.343,166.085 382.51,166.919 384,169.5C 385.718,168.969 385.885,168.302 384.5,167.5 Z"/></g>
<g><path style="opacity:1" fill="#724011" d="M 380.5,191.5 C 379.358,188.93 378.524,186.264 378,183.5C 379.257,185.679 380.757,187.679 382.5,189.5C 381.757,190.182 381.091,190.849 380.5,191.5 Z"/></g>
<g><path style="opacity:1" fill="#793f02" d="M 358.5,168.5 C 349.195,171.258 349.528,173.424 359.5,175C 358.906,175.464 358.239,175.631 357.5,175.5C 356.833,175.5 356.167,175.5 355.5,175.5C 353.383,173.684 351.049,173.35 348.5,174.5C 350.237,169.368 353.57,167.368 358.5,168.5 Z"/></g>
<g><path style="opacity:1" fill="#86531c" d="M 449.5,154.5 C 458.588,159.013 462.088,166.346 460,176.5C 460.278,177.416 460.778,178.082 461.5,178.5C 461.591,180.698 460.925,181.031 459.5,179.5C 457.792,173.886 456.958,168.22 457,162.5C 454.245,159.917 451.745,157.251 449.5,154.5 Z"/></g>
<g><path style="opacity:1" fill="#f9f599" d="M 449.5,154.5 C 451.745,157.251 454.245,159.917 457,162.5C 456.958,168.22 457.792,173.886 459.5,179.5C 458.348,178.375 457.348,178.375 456.5,179.5C 453.136,177.715 452.469,175.549 454.5,173C 453.207,172.51 451.873,172.343 450.5,172.5C 450.351,173.552 450.517,174.552 451,175.5C 455.374,179.306 456.54,183.973 454.5,189.5C 452.05,190.711 450.05,192.378 448.5,194.5C 449.222,196.944 450.222,199.278 451.5,201.5C 447.876,203.035 444.709,202.368 442,199.5C 441.536,200.094 441.369,200.761 441.5,201.5C 439.562,197.808 437.229,194.308 434.5,191C 432.735,190.36 431.068,190.527 429.5,191.5C 428.782,184.865 428.948,178.198 430,171.5C 430.406,165.566 432.24,160.233 435.5,155.5C 438.91,153.778 439.243,151.611 436.5,149C 429.347,145.398 422.013,142.398 414.5,140C 427.8,140.986 439.467,145.82 449.5,154.5 Z"/></g>
<g><path style="opacity:1" fill="#8e5a17" d="M 396.5,169.5 C 397.942,170.82 398.608,172.486 398.5,174.5C 397.167,174.5 395.833,174.5 394.5,174.5C 394.741,172.114 394.075,170.114 392.5,168.5C 392.248,165.068 393.581,164.068 396.5,165.5C 393.894,166.924 393.894,168.257 396.5,169.5 Z"/></g>
<g><path style="opacity:1" fill="#ebbf1f" d="M 408.5,136.5 C 404.268,137.932 399.935,139.432 395.5,141C 391.873,144.475 387.707,145.308 383,143.5C 382.517,144.448 382.351,145.448 382.5,146.5C 385.598,146.413 385.932,146.913 383.5,148C 384.094,148.464 384.761,148.631 385.5,148.5C 384.969,150.624 383.635,152.124 381.5,153C 382.28,154.073 382.113,155.24 381,156.5C 380.502,159.482 380.335,162.482 380.5,165.5C 379.127,165.343 377.793,165.51 376.5,166C 373.256,168.05 370.256,170.383 367.5,173C 369.116,173.615 370.449,174.615 371.5,176C 378.08,176.241 378.58,177.075 373,178.5C 370.152,177.217 367.318,177.217 364.5,178.5C 363.252,177.96 362.085,177.293 361,176.5C 360.601,176.728 360.435,177.062 360.5,177.5C 359.29,177.068 358.29,176.401 357.5,175.5C 358.239,175.631 358.906,175.464 359.5,175C 349.528,173.424 349.195,171.258 358.5,168.5C 361.146,173.012 364.146,173.345 367.5,169.5C 367.081,168.328 366.415,167.328 365.5,166.5C 364.289,167.274 364.289,168.107 365.5,169C 363.549,171.065 361.882,170.898 360.5,168.5C 360.574,166.589 361.574,165.422 363.5,165C 362.903,163.372 363.237,161.705 364.5,160C 363.263,159.768 362.263,159.268 361.5,158.5C 363.857,158.663 366.19,158.497 368.5,158C 372.123,153.913 376.456,150.913 381.5,149C 375.991,149.253 371.325,151.42 367.5,155.5C 366.914,155.291 366.414,154.957 366,154.5C 364.23,156.418 362.063,156.918 359.5,156C 365.236,151.936 371.236,148.27 377.5,145C 378.696,144.346 378.696,143.846 377.5,143.5C 373.037,147.036 368.037,149.536 362.5,151C 356.61,154.734 351.61,159.234 347.5,164.5C 347.586,163.504 347.252,162.671 346.5,162C 347.448,161.517 348.448,161.351 349.5,161.5C 349.5,160.167 349.5,158.833 349.5,157.5C 360.646,145.927 374.312,139.094 390.5,137C 396.491,136.501 402.491,136.334 408.5,136.5 Z"/></g>
<g><path style="opacity:1" fill="#7c4706" d="M 358.5,168.5 C 359.167,168.5 359.833,168.5 360.5,168.5C 361.882,170.898 363.549,171.065 365.5,169C 364.289,168.107 364.289,167.274 365.5,166.5C 366.415,167.328 367.081,168.328 367.5,169.5C 364.146,173.345 361.146,173.012 358.5,168.5 Z"/></g>
<g><path style="opacity:1" fill="#d3940b" d="M 361.5,158.5 C 362.263,159.268 363.263,159.768 364.5,160C 363.237,161.705 362.903,163.372 363.5,165C 361.574,165.422 360.574,166.589 360.5,168.5C 359.833,168.5 359.167,168.5 358.5,168.5C 353.57,167.368 350.237,169.368 348.5,174.5C 343.495,176.584 341.995,175.251 344,170.5C 345.731,168.383 347.898,166.883 350.5,166C 351.833,164 353.167,162 354.5,160C 356.74,159.023 359.073,158.523 361.5,158.5 Z"/></g>
<g><path style="opacity:1" fill="#8d5002" d="M 361.5,158.5 C 359.073,158.523 356.74,159.023 354.5,160C 353.167,162 351.833,164 350.5,166C 347.898,166.883 345.731,168.383 344,170.5C 341.995,175.251 343.495,176.584 348.5,174.5C 346.283,176.08 343.616,177.08 340.5,177.5C 340.015,180.112 340.849,180.112 343,177.5C 343.667,178.167 343.667,178.833 343,179.5C 339.806,181.586 337.306,184.252 335.5,187.5C 335.343,186.127 335.51,184.793 336,183.5C 338.59,178.651 340.924,173.651 343,168.5C 344.371,166.959 345.871,165.625 347.5,164.5C 351.61,159.234 356.61,154.734 362.5,151C 368.037,149.536 373.037,147.036 377.5,143.5C 378.696,143.846 378.696,144.346 377.5,145C 371.236,148.27 365.236,151.936 359.5,156C 362.063,156.918 364.23,156.418 366,154.5C 366.414,154.957 366.914,155.291 367.5,155.5C 371.325,151.42 375.991,149.253 381.5,149C 376.456,150.913 372.123,153.913 368.5,158C 366.19,158.497 363.857,158.663 361.5,158.5 Z"/></g>
<g><path style="opacity:1" fill="#f8de50" d="M 419.5,138.5 C 442.865,142.503 460.198,154.836 471.5,175.5C 470.542,175.047 469.708,174.381 469,173.5C 468.833,173.833 468.667,174.167 468.5,174.5C 470.229,176.444 470.562,178.444 469.5,180.5C 468.833,179.833 468.167,179.167 467.5,178.5C 465.381,174.388 464.048,174.722 463.5,179.5C 462.833,179.167 462.167,178.833 461.5,178.5C 460.778,178.082 460.278,177.416 460,176.5C 462.088,166.346 458.588,159.013 449.5,154.5C 439.467,145.82 427.8,140.986 414.5,140C 422.013,142.398 429.347,145.398 436.5,149C 439.243,151.611 438.91,153.778 435.5,155.5C 433.852,156.81 432.186,158.143 430.5,159.5C 420.034,157.297 412.367,160.964 407.5,170.5C 403.766,170.677 400.099,170.344 396.5,169.5C 393.894,168.257 393.894,166.924 396.5,165.5C 393.581,164.068 392.248,165.068 392.5,168.5C 389.923,171.262 387.923,170.762 386.5,167C 385.563,166.308 384.897,166.475 384.5,167.5C 383.685,166.571 382.852,165.571 382,164.5C 381.617,165.056 381.117,165.389 380.5,165.5C 380.335,162.482 380.502,159.482 381,156.5C 382.113,155.24 382.28,154.073 381.5,153C 383.635,152.124 384.969,150.624 385.5,148.5C 391.14,145.68 396.807,142.847 402.5,140C 408.088,138.711 413.755,138.211 419.5,138.5 Z"/></g>
<g><path style="opacity:1" fill="#7e490c" d="M 408.5,136.5 C 412.36,136.808 416.026,137.475 419.5,138.5C 413.755,138.211 408.088,138.711 402.5,140C 396.807,142.847 391.14,145.68 385.5,148.5C 384.761,148.631 384.094,148.464 383.5,148C 385.932,146.913 385.598,146.413 382.5,146.5C 382.351,145.448 382.517,144.448 383,143.5C 387.707,145.308 391.873,144.475 395.5,141C 399.935,139.432 404.268,137.932 408.5,136.5 Z"/></g>
<g><path style="opacity:1" fill="#f2e671" d="M 482.5,225.5 C 482.938,226.506 483.604,226.506 484.5,225.5C 482.694,239.722 478.861,253.389 473,266.5C 472.28,268.112 472.446,269.612 473.5,271C 472.901,272.622 472.234,274.122 471.5,275.5C 470.749,274.427 469.749,274.26 468.5,275C 467.696,276.771 466.529,278.271 465,279.5C 463.716,276.624 464.383,273.957 467,271.5C 467.943,268.176 468.776,264.843 469.5,261.5C 471.453,255.967 473.786,250.633 476.5,245.5C 477.665,244.504 478.332,243.171 478.5,241.5C 478.561,239.279 477.895,238.946 476.5,240.5C 478.523,235.413 480.523,230.413 482.5,225.5 Z"/></g>
<g><path style="opacity:1" fill="#f4f1a5" d="M 445.5,258.5 C 446.552,258.351 447.552,258.517 448.5,259C 453.42,263.685 454.753,269.185 452.5,275.5C 450.36,274.032 448.194,272.365 446,270.5C 445.501,266.514 445.334,262.514 445.5,258.5 Z"/></g>
<g><path style="opacity:1" fill="#cc8c0e" d="M 476.5,245.5 C 473.786,250.633 471.453,255.967 469.5,261.5C 465.327,269.674 459.994,277.007 453.5,283.5C 456.504,276.968 457.17,270.135 455.5,263C 456.816,261.341 458.482,260.175 460.5,259.5C 460.56,260.043 460.893,260.376 461.5,260.5C 467.549,256.452 472.549,251.452 476.5,245.5 Z"/></g>
<g><path style="opacity:1" fill="#f2e159" d="M 395.5,267.5 C 397.081,269.142 397.747,271.142 397.5,273.5C 396.183,273.821 394.849,274.154 393.5,274.5C 385.428,272.107 377.262,270.107 369,268.5C 368.235,268.57 367.735,268.903 367.5,269.5C 366.833,269.5 366.5,269.833 366.5,270.5C 366.423,271.75 365.756,272.583 364.5,273C 365.5,273.333 366.5,273.667 367.5,274C 368.412,276.205 369.745,278.038 371.5,279.5C 366.728,277.28 362.062,274.78 357.5,272C 353.939,268.927 350.272,266.094 346.5,263.5C 340.826,256.161 335.16,248.828 329.5,241.5C 328.269,238.039 326.769,234.706 325,231.5C 325.207,233.751 325.373,236.085 325.5,238.5C 323.802,231.033 321.468,223.7 318.5,216.5C 318.427,212.927 320.094,211.76 323.5,213C 324.944,214.126 325.61,215.626 325.5,217.5C 324.828,219.832 324.661,222.166 325,224.5C 334.378,245.545 349.878,260.045 371.5,268C 379.57,270.109 387.57,269.942 395.5,267.5 Z"/></g>
<g><path style="opacity:1" fill="#f1d836" d="M 411.5,262.5 C 410.5,262.833 409.833,263.5 409.5,264.5C 406.047,268.294 402.047,271.294 397.5,273.5C 397.747,271.142 397.081,269.142 395.5,267.5C 400.982,265.198 405.815,261.864 410,257.5C 411.009,259.025 411.509,260.692 411.5,262.5 Z"/></g>
<g><path style="opacity:1" fill="#af6903" d="M 409.5,264.5 C 411.377,265.659 411.877,267.326 411,269.5C 408.195,272.653 404.695,274.319 400.5,274.5C 399.209,274.737 398.209,274.404 397.5,273.5C 402.047,271.294 406.047,268.294 409.5,264.5 Z"/></g>
<g><path style="opacity:1" fill="#d3940b" d="M 411.5,262.5 C 417.19,278.987 419.023,295.987 417,313.5C 416.591,317.302 415.757,320.969 414.5,324.5C 412.764,317.477 409.764,310.977 405.5,305C 408.381,303.749 410.214,301.583 411,298.5C 412.674,288.185 409.174,280.185 400.5,274.5C 404.695,274.319 408.195,272.653 411,269.5C 411.877,267.326 411.377,265.659 409.5,264.5C 409.833,263.5 410.5,262.833 411.5,262.5 Z"/></g>
<g><path style="opacity:1" fill="#faf290" d="M 366.5,270.5 C 366.5,269.833 366.833,269.5 367.5,269.5C 378.944,274.366 390.277,279.532 401.5,285C 406.417,289.438 406.584,293.938 402,298.5C 398.629,293.252 394.462,288.752 389.5,285C 381.468,280.656 373.801,275.823 366.5,270.5 Z"/></g>
<g><path style="opacity:1" fill="#f7f397" d="M 418.5,227.5 C 420.882,240.911 423.716,254.245 427,267.5C 428.735,272.639 431.235,277.306 434.5,281.5C 432.972,281.517 432.472,282.184 433,283.5C 437.285,288.512 442.785,291.345 449.5,292C 450.667,292.5 451.5,293.333 452,294.5C 453.006,300.449 452.172,306.116 449.5,311.5C 446.772,312.94 444.605,312.274 443,309.5C 441.121,305.741 439.287,302.075 437.5,298.5C 436.66,296.147 435.326,294.147 433.5,292.5C 431.189,288.66 429.023,284.66 427,280.5C 425.429,275.275 423.596,270.275 421.5,265.5C 420.448,258.744 418.948,252.077 417,245.5C 416.333,240.833 416.333,236.167 417,231.5C 417.21,229.942 417.71,228.609 418.5,227.5 Z"/></g>
<g><path style="opacity:1" fill="#f7d632" d="M 367.5,269.5 C 367.735,268.903 368.235,268.57 369,268.5C 377.262,270.107 385.428,272.107 393.5,274.5C 394.849,274.154 396.183,273.821 397.5,273.5C 398.209,274.404 399.209,274.737 400.5,274.5C 409.174,280.185 412.674,288.185 411,298.5C 410.214,301.583 408.381,303.749 405.5,305C 409.764,310.977 412.764,317.477 414.5,324.5C 414.717,327.421 414.051,330.087 412.5,332.5C 409.945,324.503 406.611,316.836 402.5,309.5C 394.784,296.784 384.451,286.784 371.5,279.5C 369.745,278.038 368.412,276.205 367.5,274C 366.5,273.667 365.5,273.333 364.5,273C 365.756,272.583 366.423,271.75 366.5,270.5C 373.801,275.823 381.468,280.656 389.5,285C 394.462,288.752 398.629,293.252 402,298.5C 406.584,293.938 406.417,289.438 401.5,285C 390.277,279.532 378.944,274.366 367.5,269.5 Z"/></g>
<g><path style="opacity:1" fill="#4a2204" d="M 346.5,263.5 C 350.272,266.094 353.939,268.927 357.5,272C 362.062,274.78 366.728,277.28 371.5,279.5C 384.451,286.784 394.784,296.784 402.5,309.5C 403.446,316.007 404.446,322.507 405.5,329C 405.494,331.033 405.161,332.866 404.5,334.5C 404.795,332.265 404.461,330.265 403.5,328.5C 402.022,312.04 394.688,298.874 381.5,289C 371.827,283.499 362.494,277.499 353.5,271C 350.961,268.63 348.628,266.13 346.5,263.5 Z"/></g>
<g><path style="opacity:1" fill="#d2930c" d="M 329.5,241.5 C 335.16,248.828 340.826,256.161 346.5,263.5C 348.628,266.13 350.961,268.63 353.5,271C 362.494,277.499 371.827,283.499 381.5,289C 394.688,298.874 402.022,312.04 403.5,328.5C 392.883,310.381 378.549,296.215 360.5,286C 370.631,297.8 381.131,309.3 392,320.5C 398.01,328.526 401.676,337.526 403,347.5C 404.367,343.3 404.867,338.967 404.5,334.5C 405.161,332.866 405.494,331.033 405.5,329C 404.446,322.507 403.446,316.007 402.5,309.5C 406.611,316.836 409.945,324.503 412.5,332.5C 410.315,339.871 406.815,346.537 402,352.5C 393.394,330.061 380.228,310.727 362.5,294.5C 364.028,294.483 364.528,293.816 364,292.5C 355.667,282.167 347.333,271.833 339,261.5C 335.014,255.195 331.847,248.528 329.5,241.5 Z"/></g>
<g><path style="opacity:1" fill="#f7d731" d="M 403.5,328.5 C 404.461,330.265 404.795,332.265 404.5,334.5C 404.867,338.967 404.367,343.3 403,347.5C 401.676,337.526 398.01,328.526 392,320.5C 381.131,309.3 370.631,297.8 360.5,286C 378.549,296.215 392.883,310.381 403.5,328.5 Z"/></g>
<g><path style="opacity:1" fill="#d1910d" d="M 349.5,284.5 C 359.161,294.328 368.661,304.328 378,314.5C 387.461,326.422 393.961,339.755 397.5,354.5C 397.358,361.639 394.025,366.639 387.5,369.5C 381.198,362.9 375.365,355.9 370,348.5C 368.699,346.598 368.032,344.598 368,342.5C 373.656,349.665 379.822,355.665 386.5,360.5C 379.852,352.685 373.019,345.018 366,337.5C 363.018,333.202 360.851,328.536 359.5,323.5C 366.159,331.826 373.493,339.492 381.5,346.5C 383.379,349.115 385.712,351.281 388.5,353C 390.044,354.187 391.711,354.52 393.5,354C 387.873,343.24 381.373,333.073 374,323.5C 373.833,323.833 373.667,324.167 373.5,324.5C 377.613,329.728 380.946,335.395 383.5,341.5C 374.541,331.605 366.041,321.272 358,310.5C 355.178,305.196 352.678,299.863 350.5,294.5C 349.949,291.193 349.616,287.86 349.5,284.5 Z"/></g>
<g><path style="opacity:1" fill="#f8ef88" d="M 350.5,294.5 C 352.678,299.863 355.178,305.196 358,310.5C 366.041,321.272 374.541,331.605 383.5,341.5C 383.703,343.044 384.37,344.378 385.5,345.5C 384.139,345.788 382.806,346.121 381.5,346.5C 373.493,339.492 366.159,331.826 359.5,323.5C 355.417,314.166 352.417,304.499 350.5,294.5 Z"/></g>
<g><path style="opacity:1" fill="#f3d837" d="M 349.5,284.5 C 349.616,287.86 349.949,291.193 350.5,294.5C 352.417,304.499 355.417,314.166 359.5,323.5C 360.851,328.536 363.018,333.202 366,337.5C 373.019,345.018 379.852,352.685 386.5,360.5C 379.822,355.665 373.656,349.665 368,342.5C 368.032,344.598 368.699,346.598 370,348.5C 375.365,355.9 381.198,362.9 387.5,369.5C 385.932,370.473 384.265,370.64 382.5,370C 371.252,359.067 362.752,346.234 357,331.5C 348.814,310.62 342.481,289.286 338,267.5C 341.663,273.321 345.497,278.988 349.5,284.5 Z"/></g>
<g><path style="opacity:1" fill="#f4db40" d="M 381.5,346.5 C 382.806,346.121 384.139,345.788 385.5,345.5C 384.37,344.378 383.703,343.044 383.5,341.5C 380.946,335.395 377.613,329.728 373.5,324.5C 373.667,324.167 373.833,323.833 374,323.5C 381.373,333.073 387.873,343.24 393.5,354C 391.711,354.52 390.044,354.187 388.5,353C 385.712,351.281 383.379,349.115 381.5,346.5 Z"/></g>
<g><path style="opacity:1" fill="#f4db3d" d="M 412.5,210.5 C 412.435,216.078 414.435,221.078 418.5,225.5C 418.5,226.167 418.5,226.833 418.5,227.5C 417.71,228.609 417.21,229.942 417,231.5C 416.333,236.167 416.333,240.833 417,245.5C 418.948,252.077 420.448,258.744 421.5,265.5C 418.401,258.22 416.235,250.553 415,242.5C 414.888,247.5 415.221,252.5 416,257.5C 419.801,271.902 423.801,286.235 428,300.5C 429.748,308.815 431.415,317.148 433,325.5C 434.405,316.462 435.905,307.462 437.5,298.5C 439.287,302.075 441.121,305.741 443,309.5C 444.605,312.274 446.772,312.94 449.5,311.5C 452.172,306.116 453.006,300.449 452,294.5C 451.5,293.333 450.667,292.5 449.5,292C 442.785,291.345 437.285,288.512 433,283.5C 432.472,282.184 432.972,281.517 434.5,281.5C 436.146,283.751 438.313,285.418 441,286.5C 441.167,286 441.333,285.5 441.5,285C 438.542,281.883 436.208,278.383 434.5,274.5C 434.435,274.062 434.601,273.728 435,273.5C 438.071,279.307 442.238,280.14 447.5,276C 443.768,276.188 440.934,274.688 439,271.5C 438.306,267.446 438.473,263.446 439.5,259.5C 441.379,258.659 443.379,258.325 445.5,258.5C 445.334,262.514 445.501,266.514 446,270.5C 448.194,272.365 450.36,274.032 452.5,275.5C 452.205,277.423 451.372,279.09 450,280.5C 449.231,283.099 449.398,285.599 450.5,288C 456.001,288.15 459.501,285.65 461,280.5C 458.933,283.07 456.433,285.07 453.5,286.5C 452.224,285.386 452.224,284.386 453.5,283.5C 459.994,277.007 465.327,269.674 469.5,261.5C 468.776,264.843 467.943,268.176 467,271.5C 464.383,273.957 463.716,276.624 465,279.5C 466.529,278.271 467.696,276.771 468.5,275C 469.749,274.26 470.749,274.427 471.5,275.5C 467.357,293.761 461.524,311.428 454,328.5C 455.234,315.12 458.734,302.286 464.5,290C 464.333,289.5 464.167,289 464,288.5C 460.113,295.606 456.78,302.939 454,310.5C 450.202,331.421 446.868,352.421 444,373.5C 442.179,381.629 439.179,389.296 435,396.5C 426.87,406.964 417.703,416.464 407.5,425C 393.959,435.594 379.959,445.427 365.5,454.5C 364.395,455.6 363.062,456.267 361.5,456.5C 360.005,456.585 359.005,455.919 358.5,454.5C 363.578,438.693 368.911,423.026 374.5,407.5C 375.737,406.035 376.737,404.368 377.5,402.5C 385.384,389.112 393.884,376.112 403,363.5C 407.67,355.165 411.503,346.498 414.5,337.5C 415.124,337.917 415.457,338.584 415.5,339.5C 414.59,346.733 412.756,353.733 410,360.5C 400.498,376.175 390.498,391.508 380,406.5C 375.332,416.007 371.498,425.84 368.5,436C 369.332,436.688 369.998,436.521 370.5,435.5C 372.795,430.559 375.461,425.892 378.5,421.5C 383.864,414.476 389.198,407.476 394.5,400.5C 410.902,386.936 423.735,370.603 433,351.5C 430.603,362.629 425.769,372.629 418.5,381.5C 429.733,371.509 437.899,358.842 443,343.5C 444.305,336.874 444.638,330.208 444,323.5C 440.602,331.967 435.935,339.634 430,346.5C 426.033,353.813 422.033,361.147 418,368.5C 415.045,373.621 411.211,377.955 406.5,381.5C 411.519,372.126 416.019,362.46 420,352.5C 424.785,334.083 425.785,315.416 423,296.5C 420.369,282.74 417.369,269.073 414,255.5C 413.753,246.797 413.086,238.13 412,229.5C 405.879,222.903 406.045,216.569 412.5,210.5 Z"/></g>
<g><path style="opacity:1" fill="#faf38d" d="M 442.5,353.5 C 444.456,367.915 441.123,381.082 432.5,393C 431.552,393.483 430.552,393.649 429.5,393.5C 430.252,386.995 432.418,380.995 436,375.5C 437.065,367.808 439.232,360.474 442.5,353.5 Z"/></g>
<g><path style="opacity:1" fill="#d4940d" d="M 394.5,400.5 C 397.753,393.652 401.753,387.319 406.5,381.5C 411.211,377.955 415.045,373.621 418,368.5C 422.033,361.147 426.033,353.813 430,346.5C 435.935,339.634 440.602,331.967 444,323.5C 444.638,330.208 444.305,336.874 443,343.5C 437.899,358.842 429.733,371.509 418.5,381.5C 425.769,372.629 430.603,362.629 433,351.5C 423.735,370.603 410.902,386.936 394.5,400.5 Z"/></g>
<g><path style="opacity:1" fill="#f5da3c" d="M 421.5,265.5 C 423.596,270.275 425.429,275.275 427,280.5C 429.023,284.66 431.189,288.66 433.5,292.5C 435.27,301.496 434.436,302.162 431,294.5C 426.526,285.246 423.36,275.58 421.5,265.5 Z"/></g>
<g><path style="opacity:1" fill="#d5950e" d="M 421.5,265.5 C 423.36,275.58 426.526,285.246 431,294.5C 434.436,302.162 435.27,301.496 433.5,292.5C 435.326,294.147 436.66,296.147 437.5,298.5C 435.905,307.462 434.405,316.462 433,325.5C 431.415,317.148 429.748,308.815 428,300.5C 423.801,286.235 419.801,271.902 416,257.5C 415.221,252.5 414.888,247.5 415,242.5C 416.235,250.553 418.401,258.22 421.5,265.5 Z"/></g>
<g><path style="opacity:1" fill="#b57005" d="M 439.5,259.5 C 438.473,263.446 438.306,267.446 439,271.5C 440.934,274.688 443.768,276.188 447.5,276C 442.238,280.14 438.071,279.307 435,273.5C 434.601,273.728 434.435,274.062 434.5,274.5C 432.098,268.219 433.765,263.219 439.5,259.5 Z"/></g>
<g><path style="opacity:1" fill="#ca8909" d="M 375.5,371.5 C 377.474,373.428 378.974,375.761 380,378.5C 383.186,386.468 382.019,393.801 376.5,400.5C 378.082,390.743 377.749,381.077 375.5,371.5 Z"/></g>
<g><path style="opacity:1" fill="#f2de48" d="M 375.5,371.5 C 377.749,381.077 378.082,390.743 376.5,400.5C 376.5,400.833 376.5,401.167 376.5,401.5C 375.768,402.808 374.934,404.142 374,405.5C 373.829,398.321 373.329,391.321 372.5,384.5C 370.651,371.086 366.651,358.419 360.5,346.5C 360.369,345.761 360.536,345.094 361,344.5C 365.844,353.522 370.677,362.522 375.5,371.5 Z"/></g>
<g><path style="opacity:1" fill="#d0930d" d="M 378.5,421.5 C 375.461,425.892 372.795,430.559 370.5,435.5C 369.998,436.521 369.332,436.688 368.5,436C 371.498,425.84 375.332,416.007 380,406.5C 390.498,391.508 400.498,376.175 410,360.5C 412.756,353.733 414.59,346.733 415.5,339.5C 415.457,338.584 415.124,337.917 414.5,337.5C 417.134,329.001 419.134,320.335 420.5,311.5C 422.921,335.323 417.754,357.323 405,377.5C 394.452,390.895 385.286,405.228 377.5,420.5C 377.624,421.107 377.957,421.44 378.5,421.5 Z"/></g>
<g><path style="opacity:1" fill="#786221" d="M 372.5,384.5 C 373.329,391.321 373.829,398.321 374,405.5C 374.934,404.142 375.768,402.808 376.5,401.5C 376.5,402.167 376.833,402.5 377.5,402.5C 376.737,404.368 375.737,406.035 374.5,407.5C 374.19,406.262 373.69,406.262 373,407.5C 372.5,399.841 372.334,392.174 372.5,384.5 Z"/></g>
<g><path style="opacity:1" fill="#d3930c" d="M 431.5,371.5 C 432.573,372.251 432.74,373.251 432,374.5C 429.423,380.66 426.09,386.327 422,391.5C 414.636,399.198 406.97,406.531 399,413.5C 396.833,416.333 394.667,419.167 392.5,422C 393.908,422.315 395.241,421.982 396.5,421C 408.401,411.8 420.568,402.966 433,394.5C 430.129,400.406 425.963,405.573 420.5,410C 401.685,423.986 383.018,436.986 364.5,449C 371.285,437.264 378.451,425.764 386,414.5C 394.369,406.407 403.202,398.907 412.5,392C 419.407,385.597 425.74,378.764 431.5,371.5 Z"/></g>
<g><path style="opacity:1" fill="#f2d73b" d="M 438.5,423.5 C 441.557,434.606 444.89,445.606 448.5,456.5C 444.803,457.008 441.136,457.674 437.5,458.5C 437.821,450.439 437.321,442.439 436,434.5C 434.476,443.258 432.643,451.925 430.5,460.5C 429.167,460.5 427.833,460.5 426.5,460.5C 428.945,455.345 431.111,450.011 433,444.5C 433.667,438.833 433.667,433.167 433,427.5C 431.472,430.417 430.139,433.417 429,436.5C 429.727,430.858 430.727,425.192 432,419.5C 432.808,415.973 432.641,412.64 431.5,409.5C 432.504,408.317 433.338,406.984 434,405.5C 435.404,411.653 436.904,417.653 438.5,423.5 Z"/></g>
<g><path style="opacity:1" fill="#d39310" d="M 430.5,411.5 C 427.04,424.133 420.373,434.466 410.5,442.5C 402.251,446.625 393.918,450.791 385.5,455C 382.664,456.391 380.331,458.224 378.5,460.5C 372.544,459.913 366.878,458.579 361.5,456.5C 363.062,456.267 364.395,455.6 365.5,454.5C 369.715,453.762 373.715,452.428 377.5,450.5C 392.872,447.211 406.039,439.544 417,427.5C 417.692,426.563 417.525,425.897 416.5,425.5C 421.5,421.167 426.167,416.5 430.5,411.5 Z"/></g>
<g><path style="opacity:1" fill="#f7f296" d="M 431.5,409.5 C 432.641,412.64 432.808,415.973 432,419.5C 430.727,425.192 429.727,430.858 429,436.5C 430.139,433.417 431.472,430.417 433,427.5C 433.667,433.167 433.667,438.833 433,444.5C 431.111,450.011 428.945,455.345 426.5,460.5C 422.366,461.485 418.032,461.818 413.5,461.5C 415.783,458.044 418.283,454.71 421,451.5C 422.946,448.623 424.279,445.623 425,442.5C 420.513,448.829 414.346,452.162 406.5,452.5C 407.292,448.922 408.625,445.588 410.5,442.5C 420.373,434.466 427.04,424.133 430.5,411.5C 430.833,410.833 431.167,410.167 431.5,409.5 Z"/></g>
<g><path style="opacity:1" fill="#3c1a04" d="M 360.5,346.5 C 366.651,358.419 370.651,371.086 372.5,384.5C 372.334,392.174 372.5,399.841 373,407.5C 373.69,406.262 374.19,406.262 374.5,407.5C 368.911,423.026 363.578,438.693 358.5,454.5C 359.005,455.919 360.005,456.585 361.5,456.5C 366.878,458.579 372.544,459.913 378.5,460.5C 390.136,461.413 401.803,461.746 413.5,461.5C 418.032,461.818 422.366,461.485 426.5,460.5C 427.833,460.5 429.167,460.5 430.5,460.5C 433.01,460.073 435.343,459.407 437.5,458.5C 441.136,457.674 444.803,457.008 448.5,456.5C 444.89,445.606 441.557,434.606 438.5,423.5C 439.341,421.621 439.675,419.621 439.5,417.5C 443.536,426.439 446.702,435.772 449,445.5C 458.544,467.769 467.544,490.436 476,513.5C 477.041,516.636 476.207,519.136 473.5,521C 460.737,527.891 447.07,531.891 432.5,533C 413.167,533.667 393.833,533.667 374.5,533C 360.398,531.81 347.065,528.143 334.5,522C 330.788,519.398 329.622,515.898 331,511.5C 338.059,494.323 344.726,476.99 351,459.5C 352.08,457.004 353.414,454.67 355,452.5C 360.091,438.561 364.757,424.561 369,410.5C 369.793,399.131 369.46,387.798 368,376.5C 364.076,365.562 360.243,354.562 356.5,343.5C 357.825,344.953 358.658,344.619 359,342.5C 359.21,344.058 359.71,345.391 360.5,346.5 Z"/></g>
<g><path style="opacity:1" fill="#dfa212" d="M 450.5,474.5 C 452.318,480.773 453.985,487.106 455.5,493.5C 453.401,494.612 451.067,495.279 448.5,495.5C 447.648,490.108 446.482,484.775 445,479.5C 443.89,477.963 442.39,477.297 440.5,477.5C 443.743,476.51 447.076,475.51 450.5,474.5 Z"/></g>
<g><path style="opacity:1" fill="#f7f5ac" d="M 440.5,477.5 C 442.088,483.775 443.422,490.108 444.5,496.5C 439.727,498.022 434.727,499.022 429.5,499.5C 428.75,492.759 427.75,486.092 426.5,479.5C 431.062,478.372 435.728,477.705 440.5,477.5 Z"/></g>
<g><path style="opacity:1" fill="#f2dd56" d="M 356.5,473.5 C 354.243,479.099 352.077,484.766 350,490.5C 349.583,491.756 348.75,492.423 347.5,492.5C 345.516,492.516 344.516,491.516 344.5,489.5C 346.449,483.314 348.782,477.314 351.5,471.5C 353.075,472.456 354.742,473.123 356.5,473.5 Z"/></g>
<g><path style="opacity:1" fill="#c17701" d="M 356.5,473.5 C 360.584,474.848 364.584,476.181 368.5,477.5C 367.933,478.42 368.599,478.754 370.5,478.5C 368.942,484.344 367.275,490.178 365.5,496C 365.743,496.902 366.077,497.735 366.5,498.5C 359.769,497.447 353.436,495.447 347.5,492.5C 348.75,492.423 349.583,491.756 350,490.5C 352.077,484.766 354.243,479.099 356.5,473.5 Z"/></g>
<g><path style="opacity:1" fill="#489633" d="M 381.5,463.5 C 395.5,463.5 409.5,463.5 423.5,463.5C 425.183,467.631 425.85,471.964 425.5,476.5C 420.562,477.392 415.562,477.726 410.5,477.5C 410.5,473.5 410.5,469.5 410.5,465.5C 402.16,465.666 393.827,465.5 385.5,465C 383.942,464.79 382.609,464.29 381.5,463.5 Z"/></g>
<g><path style="opacity:1" fill="#13741e" d="M 377.5,462.5 C 379.099,462.232 380.432,462.566 381.5,463.5C 382.609,464.29 383.942,464.79 385.5,465C 393.827,465.5 402.16,465.666 410.5,465.5C 410.5,469.5 410.5,473.5 410.5,477.5C 401.161,477.666 391.827,477.5 382.5,477C 379.635,476.817 376.969,476.317 374.5,475.5C 375.96,471.297 376.96,466.963 377.5,462.5 Z"/></g>
<g><path style="opacity:1" fill="#0e6319" d="M 448.5,472.5 C 445.781,473.913 442.781,474.58 439.5,474.5C 438.246,470.565 437.246,466.565 436.5,462.5C 439.518,462.296 442.518,461.963 445.5,461.5C 446.297,465.223 447.297,468.89 448.5,472.5 Z"/></g>
<g><path style="opacity:1" fill="#92c964" d="M 436.5,461.5 C 436.5,461.833 436.5,462.167 436.5,462.5C 437.246,466.565 438.246,470.565 439.5,474.5C 435.057,475.801 430.391,476.468 425.5,476.5C 425.85,471.964 425.183,467.631 423.5,463.5C 427.639,462.437 431.972,461.77 436.5,461.5 Z"/></g>
<g><path style="opacity:1" fill="#277e26" d="M 360.5,458.5 C 359.192,462.776 358.192,467.11 357.5,471.5C 354.873,471.707 353.207,470.54 352.5,468C 353.47,464.756 354.637,461.59 356,458.5C 357.49,457.272 358.99,457.272 360.5,458.5 Z"/></g>
<g><path style="opacity:1" fill="#298629" d="M 448.5,472.5 C 447.297,468.89 446.297,465.223 445.5,461.5C 442.518,461.963 439.518,462.296 436.5,462.5C 436.5,462.167 436.5,461.833 436.5,461.5C 440.971,460.632 445.304,459.299 449.5,457.5C 451.562,461.128 453.229,464.961 454.5,469C 453.314,471.431 451.314,472.597 448.5,472.5 Z"/></g>
<g><path style="opacity:1" fill="#013d08" d="M 360.5,458.5 C 366.051,460.343 371.718,461.677 377.5,462.5C 376.96,466.963 375.96,471.297 374.5,475.5C 368.484,475.167 362.817,473.834 357.5,471.5C 358.192,467.11 359.192,462.776 360.5,458.5 Z"/></g>
<g><path style="opacity:1" fill="#f7da3b" d="M 410.5,442.5 C 408.625,445.588 407.292,448.922 406.5,452.5C 414.346,452.162 420.513,448.829 425,442.5C 424.279,445.623 422.946,448.623 421,451.5C 418.283,454.71 415.783,458.044 413.5,461.5C 401.803,461.746 390.136,461.413 378.5,460.5C 380.331,458.224 382.664,456.391 385.5,455C 393.918,450.791 402.251,446.625 410.5,442.5 Z"/></g>
<g><path style="opacity:1" fill="#f7f194" d="M 437.5,458.5 C 435.343,459.407 433.01,460.073 430.5,460.5C 432.643,451.925 434.476,443.258 436,434.5C 437.321,442.439 437.821,450.439 437.5,458.5 Z"/></g>
<g><path style="opacity:1" fill="#eed839" d="M 416.5,425.5 C 417.525,425.897 417.692,426.563 417,427.5C 406.039,439.544 392.872,447.211 377.5,450.5C 391.349,443.414 404.349,435.081 416.5,425.5 Z"/></g>
<g><path style="opacity:1" fill="#f9d936" d="M 394.5,480.5 C 400.167,480.5 405.833,480.5 411.5,480.5C 412.696,486.97 413.362,493.637 413.5,500.5C 405.5,500.5 397.5,500.5 389.5,500.5C 390.202,495.352 390.869,490.185 391.5,485C 391.325,483.342 390.658,482.009 389.5,481C 391.134,480.506 392.801,480.34 394.5,480.5 Z"/></g>
<g><path style="opacity:1" fill="#f7e355" d="M 421.5,479.5 C 423.167,479.5 424.833,479.5 426.5,479.5C 427.75,486.092 428.75,492.759 429.5,499.5C 425.865,500.114 422.198,500.448 418.5,500.5C 418.277,493.941 416.944,487.608 414.5,481.5C 416.969,480.832 419.302,480.165 421.5,479.5 Z"/></g>
<g><path style="opacity:1" fill="#f5d93c" d="M 440.5,477.5 C 442.39,477.297 443.89,477.963 445,479.5C 446.482,484.775 447.648,490.108 448.5,495.5C 447.432,496.434 446.099,496.768 444.5,496.5C 443.422,490.108 442.088,483.775 440.5,477.5 Z"/></g>
<g><path style="opacity:1" fill="#f1c621" d="M 368.5,477.5 C 374.824,478.249 381.157,478.915 387.5,479.5C 386.081,480.451 384.415,480.784 382.5,480.5C 381.008,486.8 379.675,493.134 378.5,499.5C 377.833,499.5 377.167,499.5 376.5,499.5C 377.99,493.206 379.323,486.873 380.5,480.5C 379.022,480.238 377.689,480.571 376.5,481.5C 374.235,486.295 372.568,491.295 371.5,496.5C 371.253,497.713 370.586,498.38 369.5,498.5C 368.5,498.5 367.5,498.5 366.5,498.5C 366.077,497.735 365.743,496.902 365.5,496C 367.275,490.178 368.942,484.344 370.5,478.5C 368.599,478.754 367.933,478.42 368.5,477.5 Z"/></g>
<g><path style="opacity:1" fill="#d4940d" d="M 376.5,499.5 C 373.941,499.802 371.607,499.468 369.5,498.5C 370.586,498.38 371.253,497.713 371.5,496.5C 372.568,491.295 374.235,486.295 376.5,481.5C 377.689,480.571 379.022,480.238 380.5,480.5C 379.323,486.873 377.99,493.206 376.5,499.5 Z"/></g>
<g><path style="opacity:1" fill="#f0dd54" d="M 455.5,493.5 C 453.985,487.106 452.318,480.773 450.5,474.5C 452.383,472.864 454.383,472.531 456.5,473.5C 459.074,479.313 461.074,485.313 462.5,491.5C 460.079,491.878 457.746,492.545 455.5,493.5 Z"/></g>
<g><path style="opacity:1" fill="#f4f09a" d="M 411.5,480.5 C 414.625,479.521 417.958,479.187 421.5,479.5C 419.302,480.165 416.969,480.832 414.5,481.5C 416.944,487.608 418.277,493.941 418.5,500.5C 416.833,500.5 415.167,500.5 413.5,500.5C 413.362,493.637 412.696,486.97 411.5,480.5 Z"/></g>
<g><path style="opacity:1" fill="#e6b019" d="M 387.5,479.5 C 390.059,479.198 392.393,479.532 394.5,480.5C 392.801,480.34 391.134,480.506 389.5,481C 390.658,482.009 391.325,483.342 391.5,485C 390.869,490.185 390.202,495.352 389.5,500.5C 385.731,500.756 382.064,500.423 378.5,499.5C 379.675,493.134 381.008,486.8 382.5,480.5C 384.415,480.784 386.081,480.451 387.5,479.5 Z"/></g>
<g><path style="opacity:1" fill="#2b852a" d="M 463.5,513.5 C 461.362,508.726 459.528,503.726 458,498.5C 456.698,497.915 455.531,497.249 454.5,496.5C 457.428,495.622 460.262,494.289 463,492.5C 465.691,498.234 468.191,504.068 470.5,510C 468.423,511.705 466.09,512.872 463.5,513.5 Z"/></g>
<g><path style="opacity:1" fill="#013a07" d="M 346.5,494.5 C 353.079,497.14 359.746,499.14 366.5,500.5C 365.503,500.47 364.836,500.97 364.5,502C 363.709,505.678 362.543,509.178 361,512.5C 360.297,514.929 360.463,517.262 361.5,519.5C 354.315,517.391 347.315,515.058 340.5,512.5C 342.438,506.59 344.438,500.59 346.5,494.5 Z"/></g>
<g><path style="opacity:1" fill="#267d26" d="M 346.5,494.5 C 344.438,500.59 342.438,506.59 340.5,512.5C 338.616,512.288 337.283,511.288 336.5,509.5C 338.333,504.5 340.167,499.5 342,494.5C 343.49,493.272 344.99,493.272 346.5,494.5 Z"/></g>
<g><path style="opacity:1" fill="#106a1c" d="M 454.5,496.5 C 455.531,497.249 456.698,497.915 458,498.5C 459.528,503.726 461.362,508.726 463.5,513.5C 459.498,515.61 455.165,516.943 450.5,517.5C 449.145,511.411 447.478,505.411 445.5,499.5C 448.341,498.331 451.341,497.331 454.5,496.5 Z"/></g>
<g><path style="opacity:1" fill="#52a13a" d="M 430.5,501.5 C 432.345,507.885 434.012,514.218 435.5,520.5C 428.7,521.755 421.7,522.422 414.5,522.5C 414.473,515.814 414.139,509.148 413.5,502.5C 419.212,502.687 424.879,502.354 430.5,501.5 Z"/></g>
<g><path style="opacity:1" fill="#8ec75f" d="M 445.5,499.5 C 447.478,505.411 449.145,511.411 450.5,517.5C 445.744,519.118 440.744,520.118 435.5,520.5C 434.012,514.218 432.345,507.885 430.5,501.5C 435.453,500.589 440.453,499.922 445.5,499.5 Z"/></g>
<g><path style="opacity:1" fill="#13711d" d="M 366.5,500.5 C 382.086,502.318 397.753,502.985 413.5,502.5C 414.139,509.148 414.473,515.814 414.5,522.5C 396.718,523.125 379.052,522.125 361.5,519.5C 360.463,517.262 360.297,514.929 361,512.5C 362.543,509.178 363.709,505.678 364.5,502C 364.836,500.97 365.503,500.47 366.5,500.5 Z"/></g>
<g><path style="opacity:1" fill="#eacf2e" d="M 339.5,514.5 C 339.204,516.403 338.537,518.07 337.5,519.5C 334.572,517.876 333.905,515.543 335.5,512.5C 336.86,513.18 338.193,513.847 339.5,514.5 Z"/></g>
<g><path style="opacity:1" fill="#c07a02" d="M 339.5,514.5 C 346.108,517.257 352.774,519.59 359.5,521.5C 359.5,523.167 359.5,524.833 359.5,526.5C 360.791,526.263 361.791,526.596 362.5,527.5C 353.562,526.408 345.229,523.742 337.5,519.5C 338.537,518.07 339.204,516.403 339.5,514.5 Z"/></g>
<g><path style="opacity:1" fill="#e1b523" d="M 452.5,525.5 C 451.699,523.958 451.366,522.292 451.5,520.5C 458.047,518.642 464.38,515.975 470.5,512.5C 473.119,514.577 473.119,516.743 470.5,519C 464.808,522.064 458.808,524.23 452.5,525.5 Z"/></g>
<g><path style="opacity:1" fill="#e4b519" d="M 359.5,521.5 C 367.007,522.22 374.34,523.22 381.5,524.5C 380.127,524.343 378.793,524.51 377.5,525C 380.817,525.498 384.15,525.665 387.5,525.5C 387.5,526.833 387.5,528.167 387.5,529.5C 384.167,529.5 380.833,529.5 377.5,529.5C 372.452,529.158 367.452,528.492 362.5,527.5C 361.791,526.596 360.791,526.263 359.5,526.5C 359.5,524.833 359.5,523.167 359.5,521.5 Z"/></g>
<g><path style="opacity:1" fill="#e8d74b" d="M 451.5,520.5 C 451.366,522.292 451.699,523.958 452.5,525.5C 443.011,527.834 433.344,529.334 423.5,530C 407.994,530.828 392.661,530.661 377.5,529.5C 380.833,529.5 384.167,529.5 387.5,529.5C 387.5,528.167 387.5,526.833 387.5,525.5C 384.15,525.665 380.817,525.498 377.5,525C 378.793,524.51 380.127,524.343 381.5,524.5C 404.994,525.412 428.327,524.079 451.5,520.5 Z"/></g>
<g><path style="opacity:1" fill="#f4d537" d="M 225.5,592.5 C 221.971,594.423 217.971,595.089 213.5,594.5C 210.266,586.38 204.266,583.214 195.5,585C 188.157,588.691 184.491,594.691 184.5,603C 183.658,612.54 187.324,619.54 195.5,624C 204.282,625.779 210.282,622.612 213.5,614.5C 217.971,613.911 221.971,614.577 225.5,616.5C 223.007,626.492 216.674,632.659 206.5,635C 184.272,636.938 172.939,626.771 172.5,604.5C 172.939,582.229 184.272,572.062 206.5,574C 216.657,576.324 222.99,582.491 225.5,592.5 Z"/></g>
<g><path style="opacity:1" fill="#f3d437" d="M 253.5,573.5 C 270.668,571.489 282.168,578.489 288,594.5C 289.682,604.663 288.349,614.33 284,623.5C 276.499,633.006 266.665,636.839 254.5,635C 242.026,631.524 234.86,623.358 233,610.5C 230.526,592.765 237.359,580.432 253.5,573.5 Z"/></g>
<g><path style="opacity:1" fill="#f3d437" d="M 297.5,574.5 C 307.839,574.334 318.172,574.5 328.5,575C 340.185,579.532 344.685,588.032 342,600.5C 340.167,607.667 335.667,612.167 328.5,614C 322.509,614.499 316.509,614.666 310.5,614.5C 310.5,621.167 310.5,627.833 310.5,634.5C 306.167,634.5 301.833,634.5 297.5,634.5C 297.5,614.5 297.5,594.5 297.5,574.5 Z"/></g>
<g><path style="opacity:1" fill="#f4d537" d="M 360.5,574.5 C 366.425,574.192 372.259,574.525 378,575.5C 384.932,594.796 391.765,614.129 398.5,633.5C 393.88,634.493 389.214,634.827 384.5,634.5C 383.327,630.145 381.993,625.812 380.5,621.5C 373.167,620.167 365.833,620.167 358.5,621.5C 356.758,625.725 355.424,630.059 354.5,634.5C 349.786,634.827 345.12,634.493 340.5,633.5C 347.573,613.947 354.24,594.28 360.5,574.5 Z"/></g>
<g><path style="opacity:1" fill="#f4d537" d="M 438.5,573.5 C 448.185,571.771 456.352,574.437 463,581.5C 466.723,589.543 466.057,597.21 461,604.5C 454.5,611 448,617.5 441.5,624C 449.827,624.5 458.16,624.666 466.5,624.5C 466.5,627.833 466.5,631.167 466.5,634.5C 452.167,634.5 437.833,634.5 423.5,634.5C 423.335,631.482 423.502,628.482 424,625.5C 434.387,616.446 444.054,606.779 453,596.5C 454.854,586.354 450.687,582.187 440.5,584C 436.61,585.945 434.943,589.112 435.5,593.5C 431.5,593.5 427.5,593.5 423.5,593.5C 423.937,583.398 428.937,576.731 438.5,573.5 Z"/></g>
<g><path style="opacity:1" fill="#f3d437" d="M 491.5,573.5 C 508.083,571.257 518.25,578.257 522,594.5C 523.338,604.129 522.338,613.462 519,622.5C 513.265,632.978 504.431,637.145 492.5,635C 482.303,631.463 476.47,624.296 475,613.5C 471.462,599.15 474.962,586.983 485.5,577C 487.727,576.059 489.727,574.892 491.5,573.5 Z"/></g>
<g><path style="opacity:1" fill="#f4d537" d="M 544.5,573.5 C 555.442,571.642 564.275,574.976 571,583.5C 573.857,591.602 572.524,598.935 567,605.5C 560.802,612.032 554.302,618.199 547.5,624C 556.16,624.5 564.827,624.666 573.5,624.5C 573.5,627.833 573.5,631.167 573.5,634.5C 559.167,634.5 544.833,634.5 530.5,634.5C 530.335,631.482 530.502,628.482 531,625.5C 540.304,617.197 549.304,608.531 558,599.5C 563.103,590.663 560.769,585.329 551,583.5C 544.771,583.899 541.937,587.232 542.5,593.5C 538.5,593.5 534.5,593.5 530.5,593.5C 529.97,588.713 531.137,584.38 534,580.5C 537.154,577.488 540.654,575.155 544.5,573.5 Z"/></g>
<g><path style="opacity:1" fill="#efd136" d="M 599.5,573.5 C 608.794,572.072 616.627,574.738 623,581.5C 625.035,584.561 626.201,587.895 626.5,591.5C 622.445,591.824 618.445,591.491 614.5,590.5C 611.5,584.857 606.833,583.024 600.5,585C 594.879,589.083 592.713,594.583 594,601.5C 605.367,591.599 615.7,592.599 625,604.5C 630.324,619.538 625.491,629.705 610.5,635C 596.181,637.014 586.681,631.181 582,617.5C 579.011,605.106 580.678,593.44 587,582.5C 590.299,578.118 594.466,575.118 599.5,573.5 Z"/></g>
<g><path style="opacity:1" fill="#050a12" d="M 256.5,584.5 C 271.708,584.553 278.208,592.22 276,607.5C 274.28,622.438 266.446,627.271 252.5,622C 248.908,618.984 246.742,615.151 246,610.5C 243.217,599.091 246.717,590.425 256.5,584.5 Z"/></g>
<g><path style="opacity:1" fill="#060a12" d="M 495.5,583.5 C 502.659,583.15 507.159,586.483 509,593.5C 509.667,600.167 509.667,606.833 509,613.5C 507.815,622.844 502.648,626.344 493.5,624C 489.639,620.746 487.472,616.579 487,611.5C 485.709,603.491 486.709,595.824 490,588.5C 491.73,586.598 493.563,584.931 495.5,583.5 Z"/></g>
<g><path style="opacity:1" fill="#060a13" d="M 310.5,584.5 C 314.846,584.334 319.179,584.501 323.5,585C 331.053,589.085 332.386,594.752 327.5,602C 322.068,604.205 316.402,605.038 310.5,604.5C 310.5,597.833 310.5,591.167 310.5,584.5 Z"/></g>
<g><path style="opacity:1" fill="#101114" d="M 376.5,610.5 C 371.637,610.819 366.97,610.486 362.5,609.5C 364.662,601.519 366.829,593.519 369,585.5C 371.964,593.687 374.464,602.021 376.5,610.5 Z"/></g>
<g><path style="opacity:1" fill="#8b7a29" d="M 225.5,592.5 C 226.404,593.209 226.737,594.209 226.5,595.5C 221.968,595.818 217.634,595.485 213.5,594.5C 217.971,595.089 221.971,594.423 225.5,592.5 Z"/></g>
<g><path style="opacity:1" fill="#050a12" d="M 600.5,604.5 C 611.88,603.378 616.38,608.378 614,619.5C 610.945,624.635 606.445,626.468 600.5,625C 592.595,617.962 592.595,611.128 600.5,604.5 Z"/></g>
<g><path style="opacity:1" fill="#887a26" d="M 362.5,609.5 C 366.97,610.486 371.637,610.819 376.5,610.5C 371.652,611.814 366.652,611.814 361.5,610.5C 361.624,609.893 361.957,609.56 362.5,609.5 Z"/></g>
<g><path style="opacity:1" fill="#a7952f" d="M 213.5,614.5 C 217.634,613.515 221.968,613.182 226.5,613.5C 226.737,614.791 226.404,615.791 225.5,616.5C 221.971,614.577 217.971,613.911 213.5,614.5 Z"/></g>
</svg>
